<?xml version="1.0" encoding="UTF-8"?><svg xmlns="http://www.w3.org/2000/svg" xmlns:xlink="http://www.w3.org/1999/xlink" contentScriptType="text/ecmascript" width="375" zoomAndPan="magnify" contentStyleType="text/css" viewBox="0 0 375 374.999991" height="374.999991" preserveAspectRatio="xMidYMid meet" version="1.0"><defs><clipPath id="clip-0"><path d="M 90.0625 90.949219 L 259 90.949219 L 259 167 L 90.0625 167 Z M 90.0625 90.949219 " clip-rule="nonzero"/></clipPath><clipPath id="clip-1"><path d="M 152 185 L 285 185 L 285 283.699219 L 152 283.699219 Z M 152 185 " clip-rule="nonzero"/></clipPath></defs><path fill="rgb(75.689697%, 15.289307%, 17.649841%)" d="M 223.429688 183.410156 C 223.210938 190.792969 217.421875 194.15625 212.21875 194.15625 C 206.945312 194.15625 201.226562 190.792969 201.007812 183.410156 C 200.640625 171.644531 211.265625 159 211.707031 158.488281 L 212.292969 157.828125 L 212.878906 158.488281 C 213.171875 159 223.796875 171.71875 223.429688 183.410156 Z M 223.429688 183.410156 " fill-opacity="1" fill-rule="nonzero"/><g clip-path="url(#clip-0)"><path fill="rgb(100%, 100%, 100%)" d="M 200.496094 166.964844 C 199.394531 166.964844 198.222656 166.527344 196.757812 165.722656 C 196.539062 165.578125 174.847656 152.347656 166.273438 147.597656 C 165.101562 146.9375 164.148438 146.351562 163.5625 145.988281 C 161.4375 144.597656 159.3125 143.429688 157.1875 142.332031 C 151.914062 139.480469 146.929688 136.777344 143.191406 131.515625 C 141.949219 129.832031 140.117188 128.808594 138.0625 128.808594 L 90.066406 128.808594 L 90.066406 127.347656 L 138.136719 127.347656 C 140.628906 127.347656 142.898438 128.589844 144.367188 130.636719 C 147.957031 135.679688 152.792969 138.3125 157.921875 141.089844 C 160.046875 142.261719 162.246094 143.429688 164.371094 144.816406 C 164.957031 145.183594 165.835938 145.695312 167.007812 146.351562 C 175.65625 151.175781 197.34375 164.40625 197.5625 164.554688 C 200.496094 166.308594 201.742188 165.648438 202.765625 164.113281 C 204.085938 162.070312 204.378906 160.09375 203.71875 158.121094 C 202.546875 154.539062 192.140625 147.449219 185.914062 143.285156 C 184.59375 142.40625 183.421875 141.601562 182.542969 141.015625 C 181.664062 140.433594 181.078125 139.335938 181.003906 138.167969 C 180.929688 137.214844 181.222656 136.414062 181.808594 135.828125 C 183.863281 133.925781 187.160156 133.488281 188.625 133.5625 C 192.875 133.636719 202.546875 135.902344 202.914062 136.046875 L 203.207031 136.121094 L 214.929688 140.945312 C 215.296875 141.089844 215.664062 141.238281 215.957031 141.382812 C 217.347656 141.894531 218.886719 142.480469 220.058594 143.722656 C 223.285156 147.085938 222.332031 151.910156 220.5 154.90625 C 220.207031 155.417969 219.839844 156.148438 219.546875 156.878906 C 218.8125 158.558594 219.105469 161.191406 220.058594 162.582031 C 221.011719 163.894531 222.40625 164.554688 224.675781 164.554688 C 227.753906 164.554688 232.371094 154.757812 232.589844 153.152344 C 232.808594 151.175781 233.101562 145.183594 233.324219 140.433594 C 233.394531 138.679688 232.371094 136.996094 230.683594 136.339844 L 230.320312 136.191406 C 224.089844 133.5625 211.195312 128.226562 204.230469 128.078125 L 204.230469 126.617188 L 234.640625 127.054688 C 238.085938 127.128906 241.601562 127.128906 245.046875 127.203125 L 246.144531 127.203125 C 246.660156 127.203125 247.171875 127.277344 247.613281 127.277344 C 248.710938 127.347656 249.808594 127.421875 250.761719 127.203125 C 252.375 126.835938 253.765625 126.179688 254.71875 125.230469 C 256.183594 123.914062 256.84375 122.011719 256.40625 120.332031 C 255.964844 118.722656 254.574219 117.042969 252.886719 116.164062 C 251.054688 115.214844 248.855469 115.289062 246.730469 115.359375 C 246.074219 115.359375 245.339844 115.433594 244.679688 115.359375 L 235.8125 115.214844 C 230.390625 115.140625 225.042969 115.070312 219.621094 114.921875 C 215.148438 114.847656 210.605469 114.777344 206.136719 114.703125 L 203.9375 114.703125 L 203.9375 113.242188 L 242.777344 113.753906 C 245.488281 113.828125 248.125 113.828125 249.664062 111.488281 C 250.835938 109.734375 250.835938 107.46875 249.738281 105.710938 C 248.34375 103.519531 246 103.300781 243.070312 103.226562 L 237.425781 103.15625 C 232.078125 103.082031 226.726562 102.933594 221.378906 102.863281 L 205.84375 102.570312 C 204.523438 102.570312 203.28125 102.496094 201.960938 102.496094 L 201.960938 101.035156 L 205.84375 101.109375 C 206.136719 101.109375 206.355469 101.109375 206.648438 101.109375 L 231.34375 101.546875 C 232.445312 101.546875 233.394531 101.109375 234.203125 100.230469 L 234.277344 100.15625 C 235.667969 98.621094 235.59375 96.285156 234.128906 94.820312 L 234.054688 94.75 C 233.324219 94.019531 232.371094 93.578125 231.269531 93.578125 L 216.542969 93.285156 C 212.878906 93.214844 209.507812 93.433594 206.285156 93.652344 C 201.007812 93.945312 196.023438 94.238281 190.089844 93.433594 C 185.105469 92.703125 181.003906 92.335938 177.121094 92.261719 C 169.351562 92.042969 158.433594 93.359375 151.691406 96.648438 C 150.082031 97.453125 148.394531 97.820312 146.710938 97.820312 L 114.617188 97.820312 L 114.617188 96.355469 L 146.785156 96.355469 C 148.25 96.355469 149.714844 95.992188 151.105469 95.332031 C 158.214844 92.042969 169.351562 90.726562 177.339844 90.949219 C 181.222656 91.019531 185.398438 91.460938 190.457031 92.117188 C 196.246094 92.921875 201.15625 92.628906 206.355469 92.335938 C 209.582031 92.117188 212.953125 91.972656 216.6875 91.972656 L 231.417969 92.261719 C 232.882812 92.261719 234.203125 92.847656 235.226562 93.871094 L 235.300781 93.945312 C 237.28125 95.992188 237.351562 99.0625 235.449219 101.179688 L 235.375 101.253906 C 235.226562 101.398438 235.082031 101.546875 234.933594 101.691406 C 235.8125 101.691406 236.621094 101.691406 237.5 101.765625 L 243.140625 101.839844 C 245.632812 101.910156 249.078125 101.910156 251.054688 104.980469 C 252.449219 107.175781 252.449219 110.171875 250.980469 112.363281 C 250.542969 113.023438 250.03125 113.535156 249.445312 113.972656 C 250.910156 114.046875 252.375 114.265625 253.695312 114.921875 C 255.820312 116.019531 257.429688 117.992188 257.945312 119.964844 C 258.457031 122.085938 257.652344 124.570312 255.820312 126.253906 C 254.644531 127.347656 253.105469 128.152344 251.203125 128.589844 C 250.03125 128.882812 248.855469 128.738281 247.683594 128.664062 C 247.171875 128.664062 246.730469 128.589844 246.292969 128.589844 L 245.195312 128.589844 C 241.75 128.519531 238.230469 128.519531 234.789062 128.445312 L 213.023438 128.226562 C 219.398438 130.054688 226.507812 132.976562 230.976562 134.878906 L 231.34375 135.023438 C 233.542969 135.972656 234.933594 138.167969 234.863281 140.503906 C 234.640625 145.183594 234.347656 151.25 234.128906 153.296875 C 233.910156 155.199219 229.074219 166.015625 224.824219 166.015625 C 224.824219 166.015625 224.824219 166.015625 224.75 166.015625 C 222.039062 165.941406 220.207031 165.136719 218.960938 163.457031 C 217.640625 161.703125 217.347656 158.488281 218.226562 156.367188 C 218.59375 155.5625 218.960938 154.832031 219.253906 154.246094 C 220.792969 151.617188 221.671875 147.597656 219.035156 144.746094 C 218.082031 143.722656 216.835938 143.285156 215.515625 142.773438 C 215.148438 142.625 214.785156 142.480469 214.417969 142.332031 L 202.546875 137.4375 C 201.742188 137.214844 192.507812 135.097656 188.625 135.023438 C 187.597656 135.023438 184.519531 135.316406 182.761719 136.925781 C 182.394531 137.289062 182.394531 137.800781 182.394531 138.09375 C 182.46875 138.824219 182.835938 139.480469 183.347656 139.847656 C 184.226562 140.433594 185.398438 141.238281 186.644531 142.113281 C 195.292969 147.960938 203.792969 153.953125 205.039062 157.683594 C 205.769531 160.023438 205.40625 162.507812 203.9375 164.847656 C 203.058594 166.234375 201.886719 166.964844 200.496094 166.964844 Z M 200.496094 166.964844 " fill-opacity="1" fill-rule="nonzero"/></g><g clip-path="url(#clip-1)"><path fill="rgb(100%, 100%, 100%)" d="M 284.101562 283.699219 L 254.425781 254.3125 C 252.15625 252.265625 249.152344 251.171875 246.074219 251.171875 L 207.015625 251.171875 C 204.011719 251.171875 201.15625 250.074219 198.882812 248.101562 L 174.628906 226.902344 C 173.53125 225.878906 172.503906 224.785156 171.769531 223.46875 L 152.9375 192.914062 C 152.058594 191.453125 151.765625 189.699219 152.28125 188.089844 C 152.71875 186.773438 153.597656 185.75 154.769531 185.386719 C 156.234375 184.945312 157.921875 185.457031 159.828125 187.066406 C 165.46875 191.671875 174.921875 204.753906 178.4375 210.457031 C 179.613281 212.359375 181.222656 213.964844 183.054688 215.0625 L 184.226562 215.71875 C 187.453125 217.691406 190.53125 219.519531 193.605469 221.640625 C 197.929688 224.710938 202.914062 226.609375 208.117188 227.121094 C 211.046875 227.414062 214.125 227.34375 217.054688 227.195312 C 218.300781 227.121094 219.621094 227.121094 220.867188 227.050781 C 222.183594 227.050781 223.503906 227.050781 224.75 227.050781 C 225.921875 227.050781 227.242188 227.050781 228.414062 227.050781 C 229 227.050781 229.367188 226.902344 229.4375 226.757812 C 229.4375 226.757812 229.21875 226.539062 228.632812 226.464844 C 221.453125 225.148438 215.664062 223.761719 210.3125 222.296875 C 207.015625 221.347656 203.9375 220.324219 201.007812 219.226562 C 200.714844 219.15625 200.496094 219.007812 200.203125 218.9375 C 197.929688 218.132812 195.660156 217.328125 195.511719 214.113281 C 195.4375 212.578125 195.878906 211.335938 196.832031 210.457031 C 199.03125 208.484375 203.132812 208.921875 206.136719 209.214844 C 206.578125 209.289062 207.015625 209.289062 207.382812 209.359375 C 210.535156 209.652344 213.683594 210.238281 216.761719 210.75 L 231.855469 213.453125 C 233.101562 213.671875 234.421875 213.890625 235.742188 214.039062 C 238.746094 214.476562 241.824219 214.84375 244.679688 215.9375 C 247.097656 216.816406 250.761719 218.570312 253.179688 220.179688 C 259.1875 224.273438 274.652344 241.230469 276.042969 244.226562 L 274.722656 244.8125 C 273.550781 242.253906 258.601562 225.660156 252.300781 221.347656 C 250.101562 219.8125 246.511719 218.132812 244.09375 217.253906 C 241.382812 216.230469 238.378906 215.867188 235.449219 215.425781 C 234.128906 215.28125 232.808594 215.0625 231.492188 214.84375 L 216.394531 212.136719 C 213.390625 211.625 210.242188 211.042969 207.164062 210.75 C 206.796875 210.75 206.355469 210.675781 205.917969 210.601562 C 203.351562 210.3125 199.394531 209.871094 197.710938 211.40625 C 197.050781 211.992188 196.832031 212.796875 196.832031 213.964844 C 196.90625 216.085938 198.222656 216.671875 200.570312 217.472656 C 200.863281 217.546875 201.15625 217.695312 201.375 217.765625 C 204.304688 218.863281 207.382812 219.8125 210.605469 220.761719 C 215.882812 222.296875 221.671875 223.613281 228.78125 224.929688 C 230.390625 225.222656 230.683594 226.097656 230.757812 226.539062 C 230.757812 226.976562 230.683594 227.34375 230.390625 227.632812 C 229.804688 228.292969 228.707031 228.363281 228.339844 228.363281 C 227.09375 228.363281 225.847656 228.363281 224.601562 228.363281 C 223.355469 228.363281 222.039062 228.363281 220.71875 228.363281 C 219.472656 228.363281 218.15625 228.4375 216.910156 228.4375 C 213.90625 228.585938 210.828125 228.65625 207.75 228.363281 C 202.328125 227.78125 197.050781 225.808594 192.582031 222.589844 C 189.578125 220.472656 186.5 218.644531 183.273438 216.742188 L 182.101562 216.011719 C 180.050781 214.769531 178.21875 213.015625 176.972656 210.894531 C 173.015625 204.464844 163.710938 191.964844 158.726562 187.871094 C 157.261719 186.703125 155.941406 186.191406 154.992188 186.480469 C 153.964844 186.773438 153.597656 187.871094 153.453125 188.238281 C 153.085938 189.40625 153.304688 190.722656 153.964844 191.890625 L 172.796875 222.445312 C 173.53125 223.613281 174.410156 224.636719 175.433594 225.515625 L 199.6875 246.710938 C 201.667969 248.464844 204.230469 249.417969 206.871094 249.417969 L 245.925781 249.417969 C 249.371094 249.417969 252.667969 250.660156 255.230469 252.925781 L 284.910156 282.308594 Z M 284.101562 283.699219 " fill-opacity="1" fill-rule="nonzero"/></g><path fill="rgb(100%, 100%, 100%)" d="M 212.730469 158.488281 L 212.144531 157.828125 L 211.558594 158.488281 C 211.121094 159 200.496094 171.71875 200.863281 183.410156 C 201.082031 190.792969 206.796875 194.15625 212.074219 194.15625 C 217.347656 194.15625 223.0625 190.792969 223.285156 183.410156 C 223.796875 171.71875 213.171875 159 212.730469 158.488281 Z M 221.964844 183.410156 C 221.746094 189.84375 216.761719 192.769531 212.144531 192.769531 C 207.53125 192.769531 202.546875 189.84375 202.328125 183.410156 C 202.035156 173.691406 209.949219 162.871094 212.144531 160.09375 C 214.34375 162.871094 222.257812 173.691406 221.964844 183.410156 Z M 221.964844 183.410156 " fill-opacity="1" fill-rule="nonzero"/></svg>