<?xml version="1.0" encoding="UTF-8"?><svg xmlns="http://www.w3.org/2000/svg" xmlns:xlink="http://www.w3.org/1999/xlink" contentScriptType="text/ecmascript" width="375" zoomAndPan="magnify" contentStyleType="text/css" viewBox="0 0 375 374.999991" height="374.999991" preserveAspectRatio="xMidYMid meet" version="1.0"><defs><clipPath id="clip-0"><path d="M 136.3125 118.160156 L 238.3125 118.160156 L 238.3125 256.910156 L 136.3125 256.910156 Z M 136.3125 118.160156 " clip-rule="nonzero"/></clipPath></defs><path fill="rgb(84.709167%, 12.159729%, 14.898682%)" d="M 235.5625 150.550781 C 234.628906 167.773438 233.160156 185.789062 226.925781 200.710938 C 219.375 219.210938 205.242188 228.390625 186.914062 228.773438 C 147.46875 228.804688 139.421875 183.21875 138.8125 150.550781 C 143.1875 145.3125 151.167969 144.796875 158.730469 148.34375 C 172.726562 154.511719 184 154.871094 186.425781 154.871094 C 187.164062 154.847656 187.210938 154.847656 187.953125 154.871094 C 190.371094 154.871094 201.652344 154.523438 215.648438 148.339844 C 223.179688 144.796875 231.230469 145.3125 235.5625 150.550781 Z M 235.5625 150.550781 " fill-opacity="1" fill-rule="nonzero"/><path fill="rgb(94.509888%, 94.509888%, 94.898987%)" d="M 189.523438 241.683594 C 189.222656 245.074219 188.582031 252.328125 188.488281 254.167969 C 187.707031 254.332031 186.921875 254.332031 186.140625 254.167969 C 186.042969 252.335938 185.402344 245.085938 185.101562 241.683594 C 187.738281 241.929688 186.890625 241.929688 189.523438 241.683594 Z M 189.523438 241.683594 " fill-opacity="1" fill-rule="nonzero"/><path fill="rgb(94.509888%, 94.509888%, 94.898987%)" d="M 198.832031 229.679688 C 198.347656 231.945312 197.558594 235.421875 197.015625 236.960938 C 196.976562 237.027344 196.347656 237.882812 192.222656 238.636719 C 189.546875 239.128906 187.695312 239.195312 187.308594 239.28125 C 186.929688 239.199219 185.0625 239.125 182.398438 238.636719 C 178.253906 237.882812 177.644531 237.027344 177.605469 236.960938 C 177.0625 235.441406 176.269531 231.960938 175.785156 229.679688 C 182.921875 231.664062 191.699219 231.664062 198.832031 229.679688 Z M 198.832031 229.679688 " fill-opacity="1" fill-rule="nonzero"/><path fill="rgb(54.119873%, 71.759033%, 88.62915%)" d="M 235.679688 146.976562 C 230.023438 143.039062 225.242188 141.804688 214.652344 145.9375 C 199.207031 152.632812 188.179688 152.160156 187.3125 152.273438 C 186.445312 152.140625 175.417969 152.621094 159.972656 145.945312 C 149.371094 141.804688 144.621094 143.039062 138.945312 146.984375 C 138.992188 138.523438 141.234375 131.957031 145.640625 127.429688 C 157.1875 116.386719 169.089844 121.511719 187.648438 120.808594 C 212.253906 120.488281 235.339844 114.746094 235.679688 146.976562 Z M 235.679688 146.976562 " fill-opacity="0.4" fill-rule="nonzero"/><path fill="rgb(100%, 100%, 100%)" d="M 203.707031 182.621094 L 203.707031 192.429688 C 203.707031 192.6875 203.617188 192.90625 203.4375 193.085938 C 203.257812 193.269531 203.039062 193.359375 202.785156 193.359375 L 194.046875 193.359375 C 193.789062 193.359375 193.570312 193.449219 193.390625 193.632812 C 193.210938 193.8125 193.121094 194.03125 193.121094 194.289062 L 193.121094 203.0625 C 193.121094 203.316406 193.03125 203.535156 192.847656 203.71875 C 192.667969 203.898438 192.449219 203.992188 192.195312 203.992188 L 182.425781 203.992188 C 182.171875 203.992188 181.953125 203.898438 181.769531 203.71875 C 181.589844 203.535156 181.5 203.316406 181.5 203.0625 L 181.5 194.289062 C 181.5 194.035156 181.410156 193.8125 181.230469 193.632812 C 181.050781 193.453125 180.832031 193.359375 180.578125 193.359375 L 171.839844 193.359375 C 171.582031 193.359375 171.367188 193.269531 171.183594 193.089844 C 171.003906 192.90625 170.914062 192.6875 170.914062 192.429688 L 170.914062 182.621094 C 170.914062 182.367188 171.003906 182.148438 171.183594 181.964844 C 171.367188 181.785156 171.582031 181.695312 171.839844 181.695312 L 180.578125 181.695312 C 180.832031 181.695312 181.050781 181.601562 181.230469 181.421875 C 181.410156 181.242188 181.5 181.023438 181.5 180.765625 L 181.5 171.992188 C 181.5 171.734375 181.589844 171.515625 181.769531 171.335938 C 181.953125 171.152344 182.171875 171.0625 182.425781 171.0625 L 192.195312 171.0625 C 192.449219 171.0625 192.667969 171.152344 192.847656 171.335938 C 193.03125 171.515625 193.121094 171.734375 193.121094 171.992188 L 193.121094 180.765625 C 193.121094 181.023438 193.210938 181.242188 193.390625 181.421875 C 193.574219 181.601562 193.789062 181.695312 194.046875 181.695312 L 202.785156 181.695312 C 203.039062 181.695312 203.257812 181.785156 203.4375 181.96875 C 203.617188 182.148438 203.707031 182.367188 203.707031 182.621094 Z M 203.707031 182.621094 " fill-opacity="1" fill-rule="nonzero"/><path fill="rgb(90.19928%, 90.589905%, 90.979004%)" d="M 205.832031 182.621094 L 205.832031 192.429688 C 205.832031 192.6875 205.742188 192.90625 205.558594 193.089844 C 205.378906 193.269531 205.160156 193.359375 204.90625 193.359375 L 196.171875 193.359375 C 195.914062 193.359375 195.695312 193.449219 195.515625 193.632812 C 195.335938 193.8125 195.246094 194.03125 195.246094 194.289062 L 195.246094 203.0625 C 195.246094 203.316406 195.152344 203.535156 194.972656 203.71875 C 194.792969 203.898438 194.574219 203.992188 194.320312 203.992188 L 184.550781 203.992188 C 184.292969 203.992188 184.078125 203.898438 183.894531 203.71875 C 183.714844 203.535156 183.625 203.316406 183.625 203.0625 L 183.625 194.289062 C 183.625 194.03125 183.535156 193.8125 183.351562 193.632812 C 183.171875 193.449219 182.953125 193.359375 182.699219 193.359375 L 173.964844 193.359375 C 173.707031 193.359375 173.488281 193.269531 173.308594 193.089844 C 173.128906 192.90625 173.039062 192.6875 173.039062 192.429688 L 173.039062 182.621094 C 173.039062 182.367188 173.128906 182.148438 173.308594 181.964844 C 173.488281 181.785156 173.707031 181.695312 173.964844 181.695312 L 182.699219 181.695312 C 182.953125 181.695312 183.171875 181.601562 183.351562 181.421875 C 183.53125 181.242188 183.625 181.023438 183.625 180.765625 L 183.625 171.992188 C 183.625 171.734375 183.714844 171.515625 183.894531 171.335938 C 184.078125 171.152344 184.292969 171.0625 184.550781 171.0625 L 194.320312 171.0625 C 194.574219 171.0625 194.792969 171.152344 194.972656 171.335938 C 195.152344 171.515625 195.246094 171.734375 195.246094 171.992188 L 195.246094 180.765625 C 195.246094 181.023438 195.335938 181.242188 195.515625 181.421875 C 195.695312 181.601562 195.914062 181.695312 196.171875 181.695312 L 204.90625 181.695312 C 205.160156 181.695312 205.378906 181.785156 205.558594 181.964844 C 205.742188 182.148438 205.832031 182.367188 205.832031 182.621094 Z M 205.832031 182.621094 " fill-opacity="1" fill-rule="nonzero"/><path fill="rgb(94.509888%, 94.509888%, 94.898987%)" d="M 193.175781 229.71875 C 191.355469 229.941406 189.527344 230.070312 187.695312 230.105469 C 147.167969 230.152344 138.90625 183.292969 138.273438 149.730469 C 142.070312 145.171875 148.546875 144.089844 155.160156 146.078125 C 153.152344 146.832031 150.015625 146.773438 149.976562 149.730469 C 150.570312 181.5 158.003906 225.179688 193.175781 229.71875 Z M 193.175781 229.71875 " fill-opacity="1" fill-rule="nonzero"/><path fill="rgb(84.709167%, 12.159729%, 14.898682%)" d="M 188.082031 229.914062 L 200.074219 228.15625 L 197.511719 238.195312 L 190.953125 240.574219 L 189.527344 255.125 L 187.316406 255.691406 L 188.019531 239.863281 Z M 188.082031 229.914062 " fill-opacity="1" fill-rule="nonzero"/><g clip-path="url(#clip-0)"><path fill="rgb(5.099487%, 10.978699%, 23.529053%)" d="M 238.230469 150.234375 C 238.808594 139.480469 236.335938 131.203125 230.875 125.589844 C 223.554688 118.050781 213.585938 118.171875 212.914062 118.171875 L 187.648438 118.171875 C 187.53125 118.167969 187.417969 118.183594 187.304688 118.214844 C 187.191406 118.183594 187.074219 118.167969 186.957031 118.171875 L 161.710938 118.171875 C 161.042969 118.171875 151.074219 118.050781 143.75 125.585938 C 138.292969 131.203125 135.820312 139.496094 136.398438 150.234375 C 137.339844 167.792969 138.8125 186.226562 145.242188 201.640625 C 148.90625 210.394531 153.914062 217.292969 160.125 222.144531 C 163.996094 225.144531 168.265625 227.382812 172.925781 228.855469 C 173.324219 230.773438 174.402344 235.792969 175.136719 237.851562 C 175.691406 239.398438 177.734375 240.425781 181.761719 241.1875 C 181.984375 241.226562 182.207031 241.269531 182.425781 241.304688 C 182.898438 246.554688 183.523438 253.757812 183.523438 254.484375 C 183.523438 255.074219 183.734375 255.578125 184.15625 255.992188 C 184.980469 256.800781 186.359375 256.886719 186.917969 256.886719 L 187.023438 256.886719 C 187.128906 256.882812 187.230469 256.867188 187.332031 256.84375 C 187.433594 256.867188 187.535156 256.882812 187.636719 256.886719 L 187.742188 256.886719 C 188.285156 256.886719 189.664062 256.800781 190.488281 255.992188 C 190.910156 255.578125 191.121094 255.074219 191.121094 254.484375 C 191.121094 253.75 191.746094 246.542969 192.214844 241.304688 C 192.4375 241.269531 192.65625 241.226562 192.882812 241.1875 C 196.910156 240.425781 198.953125 239.398438 199.507812 237.851562 C 200.242188 235.796875 201.320312 230.773438 201.71875 228.855469 C 206.378906 227.382812 210.648438 225.144531 214.519531 222.144531 C 220.734375 217.289062 225.738281 210.394531 229.398438 201.640625 C 235.832031 186.226562 237.289062 167.792969 238.230469 150.234375 Z M 145.640625 127.429688 C 152.253906 120.617188 161.5625 120.808594 161.65625 120.808594 L 186.980469 120.808594 C 187.09375 120.808594 187.210938 120.792969 187.324219 120.765625 C 187.4375 120.792969 187.550781 120.808594 187.667969 120.808594 L 212.992188 120.808594 C 213.085938 120.808594 222.394531 120.617188 229.015625 127.429688 C 233.414062 131.957031 235.652344 138.527344 235.703125 146.976562 C 234.683594 146.140625 233.574219 145.445312 232.375 144.894531 C 228.921875 143.328125 223.050781 142.230469 214.671875 145.9375 C 199.773438 152.503906 187.808594 152.230469 187.691406 152.226562 C 187.5625 152.226562 187.4375 152.238281 187.3125 152.273438 C 187.191406 152.238281 187.066406 152.226562 186.9375 152.226562 C 186.820312 152.226562 174.847656 152.5 159.972656 145.945312 C 151.589844 142.246094 145.722656 143.347656 142.273438 144.902344 C 141.074219 145.453125 139.964844 146.144531 138.945312 146.984375 C 138.992188 138.523438 141.234375 131.957031 145.640625 127.429688 Z M 188.488281 254.15625 C 188.222656 254.226562 187.953125 254.261719 187.675781 254.257812 C 187.558594 254.257812 187.445312 254.273438 187.332031 254.304688 C 187.210938 254.269531 187.089844 254.253906 186.96875 254.257812 C 186.691406 254.261719 186.421875 254.226562 186.15625 254.15625 C 186.058594 252.328125 185.421875 245.074219 185.121094 241.671875 C 186.15625 241.789062 186.847656 241.84375 186.90625 241.84375 L 187 241.84375 C 187.117188 241.84375 187.230469 241.832031 187.34375 241.800781 C 187.457031 241.832031 187.574219 241.84375 187.691406 241.84375 L 187.785156 241.84375 C 187.835938 241.84375 188.535156 241.789062 189.566406 241.671875 C 189.222656 245.074219 188.582031 252.328125 188.488281 254.15625 Z M 197.019531 236.945312 C 196.976562 237.011719 196.351562 237.863281 192.226562 238.621094 C 189.851562 239.058594 187.578125 239.210938 187.554688 239.210938 C 187.472656 239.214844 187.394531 239.230469 187.3125 239.25 C 187.234375 239.230469 187.152344 239.214844 187.070312 239.210938 C 187.046875 239.210938 184.777344 239.042969 182.402344 238.605469 C 178.257812 237.851562 177.648438 236.996094 177.609375 236.929688 C 177.066406 235.410156 176.277344 231.929688 175.789062 229.648438 C 179.445312 230.558594 183.15625 231.085938 186.921875 231.230469 L 186.980469 231.230469 C 187.09375 231.230469 187.210938 231.214844 187.324219 231.183594 C 187.4375 231.214844 187.550781 231.230469 187.667969 231.230469 L 187.726562 231.230469 C 191.480469 231.09375 195.183594 230.578125 198.832031 229.679688 C 198.347656 231.945312 197.5625 235.421875 197.019531 236.945312 Z M 226.960938 200.621094 C 221.25 214.265625 212.488281 222.816406 200.363281 226.539062 C 200.25 226.558594 200.144531 226.589844 200.039062 226.636719 C 195.976562 227.8125 191.832031 228.476562 187.605469 228.621094 C 187.507812 228.625 187.414062 228.640625 187.324219 228.667969 C 187.234375 228.640625 187.140625 228.625 187.042969 228.621094 C 182.816406 228.472656 178.671875 227.8125 174.609375 226.636719 C 174.507812 226.589844 174.398438 226.558594 174.289062 226.539062 C 162.152344 222.828125 153.390625 214.265625 147.691406 200.621094 C 141.472656 185.730469 140.003906 167.753906 139.054688 150.570312 C 140.28125 149.117188 141.761719 148.011719 143.5 147.257812 C 147.789062 145.363281 152.976562 145.734375 158.925781 148.359375 C 172.894531 154.515625 184.144531 154.875 186.5625 154.875 C 186.820312 154.875 186.976562 154.875 187.027344 154.875 C 187.125 154.871094 187.222656 154.855469 187.320312 154.828125 C 187.417969 154.855469 187.515625 154.871094 187.613281 154.875 C 187.664062 154.875 187.820312 154.875 188.082031 154.875 C 190.5 154.875 201.75 154.527344 215.714844 148.359375 C 221.664062 145.734375 226.851562 145.363281 231.140625 147.257812 C 232.878906 148.011719 234.359375 149.117188 235.585938 150.570312 C 234.648438 167.765625 233.183594 185.730469 226.960938 200.621094 Z M 226.960938 200.621094 " fill-opacity="1" fill-rule="nonzero"/></g><path fill="rgb(5.099487%, 10.978699%, 23.529053%)" d="M 192.558594 205.3125 L 180.941406 205.3125 C 180.765625 205.3125 180.597656 205.277344 180.4375 205.210938 C 180.277344 205.144531 180.136719 205.046875 180.011719 204.921875 C 179.890625 204.800781 179.792969 204.65625 179.726562 204.496094 C 179.660156 204.332031 179.628906 204.164062 179.628906 203.992188 L 179.628906 194.679688 L 170.355469 194.679688 C 170.179688 194.679688 170.011719 194.644531 169.851562 194.578125 C 169.691406 194.511719 169.550781 194.414062 169.425781 194.292969 C 169.300781 194.167969 169.207031 194.027344 169.140625 193.863281 C 169.074219 193.703125 169.042969 193.535156 169.042969 193.359375 L 169.042969 181.695312 C 169.042969 181.519531 169.074219 181.351562 169.140625 181.1875 C 169.207031 181.027344 169.300781 180.886719 169.425781 180.761719 C 169.550781 180.636719 169.691406 180.542969 169.851562 180.476562 C 170.011719 180.410156 170.179688 180.375 170.355469 180.375 L 179.628906 180.375 L 179.628906 171.0625 C 179.628906 170.886719 179.660156 170.71875 179.726562 170.558594 C 179.792969 170.398438 179.890625 170.253906 180.011719 170.128906 C 180.136719 170.007812 180.277344 169.910156 180.4375 169.84375 C 180.597656 169.777344 180.765625 169.742188 180.941406 169.742188 L 192.558594 169.742188 C 192.734375 169.742188 192.902344 169.777344 193.0625 169.84375 C 193.222656 169.910156 193.367188 170.007812 193.488281 170.128906 C 193.613281 170.253906 193.707031 170.398438 193.773438 170.558594 C 193.84375 170.71875 193.875 170.886719 193.875 171.0625 L 193.875 180.375 L 203.148438 180.375 C 203.320312 180.375 203.488281 180.410156 203.648438 180.476562 C 203.8125 180.542969 203.953125 180.636719 204.078125 180.761719 C 204.199219 180.886719 204.296875 181.027344 204.363281 181.1875 C 204.429688 181.351562 204.460938 181.519531 204.464844 181.695312 L 204.464844 193.359375 C 204.460938 193.535156 204.429688 193.703125 204.363281 193.863281 C 204.296875 194.027344 204.199219 194.167969 204.078125 194.292969 C 203.953125 194.414062 203.8125 194.511719 203.648438 194.578125 C 203.488281 194.644531 203.320312 194.679688 203.148438 194.679688 L 193.875 194.679688 L 193.875 203.992188 C 193.875 204.164062 193.84375 204.332031 193.773438 204.496094 C 193.707031 204.65625 193.613281 204.800781 193.488281 204.921875 C 193.367188 205.046875 193.222656 205.144531 193.0625 205.210938 C 192.902344 205.277344 192.734375 205.3125 192.558594 205.3125 Z M 182.253906 202.671875 L 191.234375 202.671875 L 191.234375 193.359375 C 191.234375 193.183594 191.269531 193.015625 191.335938 192.855469 C 191.402344 192.695312 191.496094 192.550781 191.621094 192.425781 C 191.742188 192.304688 191.886719 192.207031 192.046875 192.140625 C 192.207031 192.074219 192.375 192.039062 192.550781 192.039062 L 201.824219 192.039062 L 201.824219 183.023438 L 192.558594 183.023438 C 192.386719 183.023438 192.21875 182.992188 192.058594 182.925781 C 191.894531 182.859375 191.753906 182.761719 191.628906 182.636719 C 191.507812 182.515625 191.410156 182.371094 191.34375 182.210938 C 191.277344 182.046875 191.246094 181.878906 191.246094 181.703125 L 191.246094 172.382812 L 182.253906 172.382812 L 182.253906 181.695312 C 182.253906 181.871094 182.222656 182.039062 182.15625 182.203125 C 182.089844 182.363281 181.996094 182.507812 181.871094 182.632812 C 181.75 182.757812 181.605469 182.855469 181.445312 182.921875 C 181.285156 182.992188 181.117188 183.023438 180.941406 183.023438 L 171.671875 183.023438 L 171.671875 192.042969 L 180.941406 192.042969 C 181.113281 192.042969 181.28125 192.078125 181.441406 192.144531 C 181.601562 192.210938 181.742188 192.308594 181.867188 192.429688 C 181.988281 192.554688 182.085938 192.695312 182.152344 192.855469 C 182.21875 193.019531 182.253906 193.1875 182.253906 193.359375 Z M 182.253906 202.671875 " fill-opacity="1" fill-rule="nonzero"/></svg>