<?xml version="1.0" encoding="UTF-8"?><svg xmlns="http://www.w3.org/2000/svg" xmlns:xlink="http://www.w3.org/1999/xlink" contentScriptType="text/ecmascript" width="375" zoomAndPan="magnify" contentStyleType="text/css" viewBox="0 0 375 374.999991" height="374.999991" preserveAspectRatio="xMidYMid meet" version="1.0"><defs><clipPath id="clip-0"><path d="M 120.839844 174 L 181 174 L 181 254.339844 L 120.839844 254.339844 Z M 120.839844 174 " clip-rule="nonzero"/></clipPath><clipPath id="clip-1"><path d="M 194 174 L 254.339844 174 L 254.339844 254.339844 L 194 254.339844 Z M 194 174 " clip-rule="nonzero"/></clipPath><clipPath id="clip-2"><path d="M 154 120.839844 L 221 120.839844 L 221 201 L 154 201 Z M 154 120.839844 " clip-rule="nonzero"/></clipPath></defs><g clip-path="url(#clip-0)"><path fill="rgb(87.059021%, 5.879211%, 24.708557%)" d="M 160.183594 203.03125 C 159.71875 202.566406 159.210938 202.15625 158.664062 201.792969 C 158.117188 201.433594 157.542969 201.125 156.9375 200.875 C 156.332031 200.625 155.707031 200.4375 155.0625 200.3125 C 154.417969 200.183594 153.769531 200.121094 153.113281 200.121094 C 152.460938 200.121094 151.808594 200.183594 151.167969 200.3125 C 150.523438 200.4375 149.898438 200.625 149.292969 200.875 C 148.6875 201.125 148.109375 201.433594 147.566406 201.792969 C 147.019531 202.15625 146.511719 202.566406 146.046875 203.03125 C 145.410156 203.667969 145.046875 204.457031 144.621094 205.183594 L 140.890625 202.542969 L 140.890625 184.253906 C 140.890625 183.597656 140.828125 182.945312 140.699219 182.300781 C 140.570312 181.65625 140.378906 181.03125 140.128906 180.421875 C 139.878906 179.816406 139.570312 179.238281 139.203125 178.691406 C 138.839844 178.144531 138.421875 177.640625 137.957031 177.175781 C 137.492188 176.710938 136.988281 176.296875 136.441406 175.929688 C 135.894531 175.566406 135.316406 175.257812 134.710938 175.003906 C 134.105469 174.753906 133.476562 174.5625 132.832031 174.433594 C 132.1875 174.308594 131.539062 174.242188 130.878906 174.242188 C 130.222656 174.242188 129.570312 174.308594 128.925781 174.433594 C 128.28125 174.5625 127.65625 174.753906 127.050781 175.003906 C 126.441406 175.257812 125.867188 175.566406 125.320312 175.929688 C 124.773438 176.296875 124.265625 176.710938 123.800781 177.175781 C 123.335938 177.640625 122.921875 178.144531 122.558594 178.691406 C 122.191406 179.238281 121.882812 179.816406 121.632812 180.421875 C 121.378906 181.03125 121.191406 181.65625 121.0625 182.300781 C 120.933594 182.945312 120.871094 183.597656 120.871094 184.253906 L 120.871094 214.496094 C 120.859375 215.964844 121.164062 217.363281 121.78125 218.695312 C 122.394531 220.027344 123.265625 221.167969 124.390625 222.109375 L 154.238281 249.136719 L 154.238281 250.988281 C 154.238281 251.429688 154.320312 251.855469 154.492188 252.265625 C 154.660156 252.671875 154.902344 253.035156 155.214844 253.347656 C 155.527344 253.660156 155.886719 253.902344 156.296875 254.070312 C 156.707031 254.238281 157.132812 254.324219 157.574219 254.324219 C 158.015625 254.324219 158.441406 254.238281 158.851562 254.070312 C 159.261719 253.902344 159.621094 253.660156 159.933594 253.347656 C 160.246094 253.035156 160.488281 252.671875 160.65625 252.265625 C 160.828125 251.855469 160.910156 251.429688 160.910156 250.988281 L 160.910156 247.652344 C 160.914062 246.660156 160.546875 245.832031 159.820312 245.164062 L 128.757812 217.074219 C 128.367188 216.757812 128.066406 216.375 127.855469 215.925781 C 127.640625 215.472656 127.539062 214.996094 127.542969 214.496094 L 127.542969 184.253906 C 127.542969 183.808594 127.628906 183.386719 127.796875 182.976562 C 127.96875 182.566406 128.207031 182.207031 128.519531 181.894531 C 128.832031 181.582031 129.195312 181.339844 129.601562 181.171875 C 130.011719 181 130.4375 180.917969 130.878906 180.917969 C 131.324219 180.917969 131.75 181 132.15625 181.171875 C 132.566406 181.339844 132.925781 181.582031 133.238281 181.894531 C 133.550781 182.207031 133.792969 182.566406 133.964844 182.976562 C 134.132812 183.386719 134.21875 183.808594 134.21875 184.253906 L 134.21875 204.273438 C 134.214844 204.816406 134.339844 205.332031 134.59375 205.816406 C 134.84375 206.296875 135.195312 206.695312 135.644531 207.003906 L 143.621094 212.644531 C 144.019531 214.414062 144.847656 215.953125 146.109375 217.257812 L 159 229.449219 C 159.320312 229.753906 159.6875 229.984375 160.101562 230.144531 C 160.515625 230.300781 160.945312 230.375 161.386719 230.363281 C 161.832031 230.347656 162.253906 230.253906 162.65625 230.070312 C 163.0625 229.890625 163.414062 229.640625 163.71875 229.316406 C 164.023438 228.996094 164.253906 228.625 164.410156 228.210938 C 164.570312 227.800781 164.640625 227.371094 164.628906 226.929688 C 164.613281 226.484375 164.519531 226.0625 164.335938 225.660156 C 164.15625 225.253906 163.902344 224.902344 163.582031 224.597656 L 150.75 212.492188 C 150.433594 212.179688 150.191406 211.820312 150.019531 211.410156 C 149.851562 211 149.765625 210.570312 149.765625 210.128906 C 149.765625 209.683594 149.851562 209.257812 150.019531 208.847656 C 150.191406 208.4375 150.433594 208.074219 150.75 207.761719 C 151.070312 207.449219 151.441406 207.210938 151.859375 207.042969 C 152.277344 206.878906 152.707031 206.796875 153.15625 206.804688 C 153.605469 206.808594 154.039062 206.898438 154.449219 207.078125 C 154.863281 207.253906 155.226562 207.5 155.542969 207.824219 L 173.289062 224.6875 C 173.9375 225.34375 174.261719 226.132812 174.257812 227.054688 L 174.257812 250.988281 C 174.257812 251.429688 174.34375 251.855469 174.511719 252.265625 C 174.679688 252.671875 174.921875 253.035156 175.234375 253.347656 C 175.546875 253.660156 175.910156 253.902344 176.316406 254.070312 C 176.726562 254.238281 177.152344 254.324219 177.59375 254.324219 C 178.039062 254.324219 178.460938 254.238281 178.871094 254.070312 C 179.28125 253.902344 179.640625 253.660156 179.953125 253.347656 C 180.265625 253.035156 180.507812 252.671875 180.675781 252.265625 C 180.847656 251.855469 180.929688 251.429688 180.929688 250.988281 L 180.929688 227.054688 C 180.933594 225.714844 180.679688 224.425781 180.164062 223.191406 C 179.648438 221.953125 178.914062 220.867188 177.957031 219.925781 Z M 160.183594 203.03125 " fill-opacity="1" fill-rule="nonzero"/></g><g clip-path="url(#clip-1)"><path fill="rgb(87.059021%, 5.879211%, 24.708557%)" d="M 244.328125 174.242188 C 243.671875 174.242188 243.019531 174.308594 242.375 174.433594 C 241.730469 174.5625 241.105469 174.753906 240.5 175.003906 C 239.890625 175.257812 239.316406 175.566406 238.769531 175.929688 C 238.222656 176.296875 237.714844 176.710938 237.25 177.175781 C 236.785156 177.640625 236.371094 178.144531 236.007812 178.691406 C 235.640625 179.238281 235.332031 179.816406 235.082031 180.421875 C 234.828125 181.03125 234.640625 181.65625 234.511719 182.300781 C 234.382812 182.945312 234.320312 183.597656 234.320312 184.253906 L 234.320312 202.542969 L 230.589844 205.183594 C 230.164062 204.425781 229.800781 203.667969 229.164062 203.03125 C 225.25 199.148438 218.910156 199.148438 215.085938 202.96875 L 197.191406 219.988281 C 196.253906 220.921875 195.53125 222.003906 195.027344 223.230469 C 194.519531 224.453125 194.273438 225.730469 194.277344 227.054688 L 194.277344 250.988281 C 194.277344 251.429688 194.363281 251.855469 194.53125 252.265625 C 194.703125 252.671875 194.941406 253.035156 195.253906 253.347656 C 195.570312 253.660156 195.929688 253.902344 196.339844 254.070312 C 196.746094 254.238281 197.171875 254.324219 197.613281 254.324219 C 198.058594 254.324219 198.484375 254.238281 198.890625 254.070312 C 199.300781 253.902344 199.660156 253.660156 199.972656 253.347656 C 200.289062 253.035156 200.527344 252.671875 200.699219 252.265625 C 200.867188 251.855469 200.953125 251.429688 200.953125 250.988281 L 200.953125 227.054688 C 200.941406 226.160156 201.246094 225.394531 201.863281 224.75 L 219.730469 207.761719 C 220.042969 207.445312 220.402344 207.203125 220.8125 207.035156 C 221.222656 206.863281 221.652344 206.777344 222.09375 206.777344 C 222.539062 206.777344 222.964844 206.863281 223.375 207.035156 C 223.785156 207.203125 224.148438 207.445312 224.460938 207.761719 C 224.769531 208.066406 225.007812 208.417969 225.179688 208.820312 C 225.347656 209.21875 225.4375 209.636719 225.441406 210.070312 C 225.449219 210.503906 225.371094 210.921875 225.210938 211.328125 C 225.050781 211.730469 224.820312 212.089844 224.519531 212.402344 L 211.628906 224.597656 C 211.308594 224.902344 211.054688 225.253906 210.875 225.660156 C 210.691406 226.0625 210.59375 226.484375 210.582031 226.929688 C 210.570312 227.371094 210.640625 227.800781 210.796875 228.210938 C 210.957031 228.625 211.1875 228.996094 211.492188 229.316406 C 211.792969 229.640625 212.148438 229.890625 212.550781 230.070312 C 212.957031 230.253906 213.378906 230.347656 213.824219 230.363281 C 214.265625 230.375 214.691406 230.300781 215.105469 230.144531 C 215.519531 229.984375 215.886719 229.753906 216.210938 229.449219 L 229.164062 217.195312 C 230.40625 215.898438 231.226562 214.371094 231.621094 212.617188 L 239.566406 207.003906 C 240.015625 206.695312 240.363281 206.296875 240.617188 205.816406 C 240.871094 205.332031 240.996094 204.816406 240.992188 204.273438 L 240.992188 184.253906 C 240.992188 183.808594 241.078125 183.386719 241.246094 182.976562 C 241.417969 182.566406 241.65625 182.207031 241.96875 181.894531 C 242.28125 181.582031 242.644531 181.339844 243.050781 181.171875 C 243.460938 181 243.886719 180.917969 244.328125 180.917969 C 244.773438 180.917969 245.199219 181 245.605469 181.171875 C 246.015625 181.339844 246.375 181.582031 246.6875 181.894531 C 247 182.207031 247.242188 182.566406 247.414062 182.976562 C 247.582031 183.386719 247.667969 183.808594 247.667969 184.253906 L 247.667969 214.496094 C 247.664062 215.015625 247.550781 215.511719 247.320312 215.980469 C 247.09375 216.449219 246.773438 216.84375 246.363281 217.164062 L 215.390625 245.164062 C 214.660156 245.832031 214.296875 246.660156 214.300781 247.652344 L 214.300781 250.988281 C 214.300781 251.429688 214.382812 251.855469 214.554688 252.265625 C 214.722656 252.671875 214.964844 253.035156 215.277344 253.347656 C 215.589844 253.660156 215.949219 253.902344 216.359375 254.070312 C 216.765625 254.238281 217.191406 254.324219 217.636719 254.324219 C 218.078125 254.324219 218.503906 254.238281 218.914062 254.070312 C 219.320312 253.902344 219.683594 253.660156 219.996094 253.347656 C 220.308594 253.035156 220.550781 252.671875 220.71875 252.265625 C 220.886719 251.855469 220.972656 251.429688 220.972656 250.988281 L 220.972656 249.136719 L 250.730469 222.199219 C 251.875 221.25 252.765625 220.101562 253.398438 218.753906 C 254.027344 217.402344 254.34375 215.984375 254.339844 214.496094 L 254.339844 184.253906 C 254.339844 183.597656 254.277344 182.945312 254.148438 182.300781 C 254.019531 181.65625 253.828125 181.03125 253.578125 180.421875 C 253.328125 179.816406 253.019531 179.238281 252.652344 178.691406 C 252.289062 178.144531 251.871094 177.640625 251.40625 177.175781 C 250.941406 176.710938 250.4375 176.296875 249.890625 175.929688 C 249.34375 175.566406 248.765625 175.257812 248.160156 175.003906 C 247.554688 174.753906 246.925781 174.5625 246.28125 174.433594 C 245.636719 174.308594 244.988281 174.242188 244.328125 174.242188 Z M 244.328125 174.242188 " fill-opacity="1" fill-rule="nonzero"/></g><g clip-path="url(#clip-2)"><path fill="rgb(87.059021%, 5.879211%, 24.708557%)" d="M 220.972656 167.570312 C 220.972656 143 193.761719 120.855469 187.605469 120.855469 C 181.445312 120.855469 154.238281 143 154.238281 167.570312 C 154.238281 168.664062 154.292969 169.753906 154.398438 170.839844 C 154.503906 171.925781 154.664062 173.007812 154.878906 174.078125 C 155.09375 175.152344 155.355469 176.210938 155.675781 177.253906 C 155.992188 178.300781 156.359375 179.328125 156.777344 180.339844 C 157.195312 181.347656 157.664062 182.335938 158.175781 183.296875 C 158.691406 184.261719 159.253906 185.199219 159.859375 186.105469 C 160.46875 187.015625 161.117188 187.894531 161.8125 188.738281 C 162.503906 189.582031 163.238281 190.390625 164.011719 191.164062 C 164.785156 191.9375 165.59375 192.667969 166.4375 193.363281 C 167.28125 194.054688 168.160156 194.707031 169.066406 195.3125 C 169.976562 195.921875 170.910156 196.480469 171.875 196.996094 C 172.839844 197.511719 173.824219 197.980469 174.835938 198.398438 C 175.84375 198.816406 176.875 199.183594 177.917969 199.5 C 178.964844 199.816406 180.023438 200.082031 181.09375 200.296875 C 182.167969 200.507812 183.246094 200.667969 184.335938 200.777344 C 185.421875 200.882812 186.511719 200.9375 187.605469 200.9375 C 188.699219 200.9375 189.789062 200.882812 190.875 200.777344 C 191.964844 200.667969 193.042969 200.507812 194.113281 200.296875 C 195.1875 200.082031 196.246094 199.816406 197.289062 199.5 C 198.335938 199.183594 199.363281 198.816406 200.375 198.398438 C 201.382812 197.980469 202.371094 197.511719 203.335938 196.996094 C 204.296875 196.480469 205.234375 195.921875 206.144531 195.3125 C 207.050781 194.707031 207.929688 194.054688 208.773438 193.363281 C 209.617188 192.667969 210.425781 191.9375 211.199219 191.164062 C 211.972656 190.390625 212.703125 189.582031 213.398438 188.738281 C 214.089844 187.894531 214.742188 187.015625 215.347656 186.105469 C 215.957031 185.199219 216.515625 184.261719 217.03125 183.296875 C 217.546875 182.335938 218.015625 181.347656 218.433594 180.339844 C 218.851562 179.328125 219.21875 178.300781 219.535156 177.253906 C 219.851562 176.210938 220.117188 175.152344 220.332031 174.078125 C 220.542969 173.007812 220.703125 171.925781 220.8125 170.839844 C 220.917969 169.753906 220.972656 168.664062 220.972656 167.570312 Z M 187.605469 194.261719 C 186.730469 194.261719 185.859375 194.21875 184.988281 194.132812 C 184.121094 194.046875 183.257812 193.917969 182.398438 193.746094 C 181.542969 193.574219 180.695312 193.359375 179.859375 193.105469 C 179.023438 192.851562 178.203125 192.558594 177.394531 192.222656 C 176.585938 191.886719 175.796875 191.515625 175.027344 191.101562 C 174.257812 190.691406 173.507812 190.242188 172.78125 189.753906 C 172.054688 189.269531 171.355469 188.75 170.679688 188.195312 C 170.003906 187.640625 169.355469 187.054688 168.738281 186.4375 C 168.121094 185.816406 167.535156 185.171875 166.980469 184.496094 C 166.425781 183.820312 165.90625 183.117188 165.417969 182.390625 C 164.933594 181.664062 164.484375 180.917969 164.070312 180.148438 C 163.660156 179.375 163.285156 178.585938 162.949219 177.78125 C 162.617188 176.972656 162.320312 176.152344 162.066406 175.316406 C 161.8125 174.480469 161.601562 173.632812 161.429688 172.773438 C 161.257812 171.917969 161.128906 171.054688 161.042969 170.183594 C 160.957031 169.316406 160.910156 168.441406 160.910156 167.570312 C 160.910156 147.125 183.117188 129.832031 187.605469 127.679688 C 192.09375 129.832031 214.300781 147.125 214.300781 167.570312 C 214.296875 168.441406 214.253906 169.316406 214.167969 170.183594 C 214.082031 171.054688 213.953125 171.917969 213.78125 172.773438 C 213.609375 173.632812 213.398438 174.480469 213.144531 175.316406 C 212.886719 176.152344 212.59375 176.972656 212.257812 177.78125 C 211.925781 178.585938 211.550781 179.375 211.136719 180.148438 C 210.726562 180.917969 210.277344 181.664062 209.789062 182.390625 C 209.304688 183.117188 208.785156 183.820312 208.230469 184.496094 C 207.675781 185.171875 207.089844 185.816406 206.472656 186.4375 C 205.851562 187.054688 205.207031 187.640625 204.53125 188.195312 C 203.855469 188.75 203.15625 189.269531 202.429688 189.753906 C 201.703125 190.242188 200.953125 190.691406 200.183594 191.101562 C 199.410156 191.515625 198.621094 191.886719 197.816406 192.222656 C 197.007812 192.558594 196.1875 192.851562 195.351562 193.105469 C 194.515625 193.359375 193.667969 193.574219 192.808594 193.746094 C 191.953125 193.917969 191.089844 194.046875 190.21875 194.132812 C 189.351562 194.21875 188.480469 194.261719 187.605469 194.261719 Z M 187.605469 194.261719 " fill-opacity="1" fill-rule="nonzero"/></g><path fill="rgb(87.059021%, 5.879211%, 24.708557%)" d="M 197.613281 164.234375 L 190.941406 164.234375 L 190.941406 157.558594 C 190.941406 157.117188 190.855469 156.691406 190.6875 156.28125 C 190.519531 155.875 190.277344 155.511719 189.964844 155.199219 C 189.652344 154.886719 189.289062 154.644531 188.882812 154.476562 C 188.472656 154.308594 188.046875 154.222656 187.605469 154.222656 C 187.164062 154.222656 186.738281 154.308594 186.328125 154.476562 C 185.917969 154.644531 185.558594 154.886719 185.246094 155.199219 C 184.933594 155.511719 184.691406 155.875 184.523438 156.28125 C 184.351562 156.691406 184.269531 157.117188 184.269531 157.558594 L 184.269531 164.234375 L 177.59375 164.234375 C 177.152344 164.234375 176.726562 164.316406 176.316406 164.488281 C 175.910156 164.65625 175.546875 164.898438 175.234375 165.210938 C 174.921875 165.523438 174.679688 165.882812 174.511719 166.292969 C 174.34375 166.699219 174.257812 167.125 174.257812 167.570312 C 174.257812 168.011719 174.34375 168.4375 174.511719 168.847656 C 174.679688 169.253906 174.921875 169.617188 175.234375 169.929688 C 175.546875 170.242188 175.910156 170.484375 176.316406 170.652344 C 176.726562 170.820312 177.152344 170.90625 177.59375 170.90625 L 184.269531 170.90625 L 184.269531 177.578125 C 184.269531 178.023438 184.351562 178.449219 184.523438 178.855469 C 184.691406 179.265625 184.933594 179.625 185.246094 179.9375 C 185.558594 180.25 185.917969 180.492188 186.328125 180.664062 C 186.738281 180.832031 187.164062 180.917969 187.605469 180.917969 C 188.046875 180.917969 188.472656 180.832031 188.882812 180.664062 C 189.289062 180.492188 189.652344 180.25 189.964844 179.9375 C 190.277344 179.625 190.519531 179.265625 190.6875 178.855469 C 190.855469 178.449219 190.941406 178.023438 190.941406 177.578125 L 190.941406 170.90625 L 197.613281 170.90625 C 198.058594 170.90625 198.484375 170.820312 198.890625 170.652344 C 199.300781 170.484375 199.660156 170.242188 199.972656 169.929688 C 200.289062 169.617188 200.527344 169.253906 200.699219 168.847656 C 200.867188 168.4375 200.953125 168.011719 200.953125 167.570312 C 200.953125 167.125 200.867188 166.699219 200.699219 166.292969 C 200.527344 165.882812 200.289062 165.523438 199.972656 165.210938 C 199.660156 164.898438 199.300781 164.65625 198.890625 164.488281 C 198.484375 164.316406 198.058594 164.234375 197.613281 164.234375 Z M 197.613281 164.234375 " fill-opacity="1" fill-rule="nonzero"/></svg>